<svg width="859" height="236" viewBox="0 0 859 236" fill="none" xmlns="http://www.w3.org/2000/svg">
<rect width="859" height="236" rx="12" fill="white"/>
<path d="M353.22 200.52C352.144 200.515 351.114 200.086 350.352 199.326C349.59 198.566 349.158 197.536 349.15 196.46V113.74C349.156 112.663 349.586 111.63 350.348 110.868C351.11 110.106 352.143 109.676 353.22 109.67H375.67C395.62 109.67 406.13 117.93 406.13 137.24C406.13 155.09 398.91 166.13 377.24 166.13H365V196.45C364.993 197.526 364.561 198.556 363.799 199.316C363.037 200.076 362.006 200.505 360.93 200.51L353.22 200.52ZM365 152.99H376.29C385.35 152.99 389.56 149.58 389.56 138.29C389.56 126.6 385.61 123.06 376.42 123.06H365V152.99Z" fill="#362D31"/>
<path d="M431.61 201.96C420.32 201.96 417.44 196.32 417.44 183.32V109.01C417.446 107.933 417.876 106.9 418.638 106.138C419.4 105.376 420.433 104.946 421.51 104.94H428.33C429.408 104.946 430.44 105.376 431.203 106.138C431.965 106.9 432.395 107.933 432.4 109.01V185.16C432.4 188.05 433.32 189.49 435.16 190.01C437.78 190.81 439.49 191.59 439.88 194.22L440.28 196.97C440.366 197.463 440.352 197.968 440.238 198.455C440.125 198.942 439.916 199.401 439.622 199.806C439.328 200.21 438.957 200.552 438.529 200.81C438.101 201.069 437.625 201.239 437.13 201.31C435.319 201.726 433.469 201.944 431.61 201.96Z" fill="#362D31"/>
<path d="M494.12 223.37C464.85 223.37 447.52 206.82 447.52 174.13C447.52 141.44 467.52 116.63 500.69 116.63C530.1 116.63 546.38 134.48 546.38 163.1C546.38 190.01 535.88 201.96 520.38 201.96C509.21 201.96 504.62 196.58 503.05 188.83C498.32 194.61 492.15 199.99 484.27 199.99C476.79 199.99 471.27 194.48 471.27 181.61C471.353 176.843 471.933 172.098 473 167.45C477.07 147.76 484.95 140.67 496.77 140.67C502.94 140.67 507.13 144.21 509.37 146.44L509.5 145.92C509.718 144.793 510.323 143.776 511.21 143.046C512.097 142.316 513.211 141.918 514.36 141.92H519.61C520.103 141.923 520.591 142.035 521.037 142.247C521.483 142.46 521.876 142.768 522.189 143.15C522.502 143.532 522.728 143.978 522.849 144.457C522.97 144.936 522.984 145.435 522.89 145.92L515.53 180.45C515.184 181.912 515.006 183.408 515 184.91C515 189.64 517.37 191.61 520.51 191.61C528.51 191.61 533.78 183.87 533.78 163.12C533.78 138.97 524.59 127.12 500.17 127.12C473.65 127.12 460.51 146.55 460.51 174.12C460.51 202.22 471.42 212.72 493.99 212.72C498.965 212.79 503.923 212.116 508.7 210.72C509.726 210.406 510.835 210.504 511.791 210.993C512.746 211.482 513.474 212.324 513.82 213.34L514.48 215.44C514.657 215.94 514.734 216.471 514.705 217.001C514.675 217.531 514.541 218.05 514.309 218.527C514.077 219.004 513.753 219.431 513.355 219.782C512.956 220.133 512.492 220.401 511.99 220.57C506.219 222.444 500.187 223.389 494.12 223.37ZM489.4 189.23C493.86 189.23 498.07 185.42 501.75 181.74L507.52 154.45C505.52 152.75 502.93 150.64 499.12 150.64C492.55 150.64 490.06 154.58 487.04 169.02C485.92 173.496 485.25 178.072 485.04 182.68C485.07 187.52 486.65 189.23 489.4 189.23Z" fill="#362D31"/>
<path d="M562.41 200.52C561.334 200.515 560.303 200.086 559.541 199.326C558.779 198.566 558.348 197.536 558.34 196.46V138.16C558.345 137.083 558.776 136.05 559.538 135.288C560.3 134.526 561.332 134.096 562.41 134.09H566.22C567.37 134.101 568.485 134.493 569.389 135.204C570.294 135.915 570.937 136.905 571.22 138.02L571.87 141.3C577.26 136.06 583.3 132.38 591.44 132.38C601.94 132.38 608.11 137.24 608.11 149.71V196.45C608.105 197.527 607.674 198.558 606.911 199.319C606.149 200.079 605.117 200.508 604.04 200.51H597.2C596.124 200.505 595.093 200.076 594.331 199.316C593.569 198.556 593.138 197.526 593.13 196.45V153.52C593.13 146.52 590.9 144.85 586.04 144.85C581.18 144.85 577.12 147.35 573.31 150.76V196.45C573.302 197.526 572.87 198.556 572.108 199.316C571.347 200.076 570.316 200.505 569.24 200.51L562.41 200.52Z" fill="#362D31"/>
<path d="M621.51 145.65C620.432 145.642 619.4 145.209 618.638 144.446C617.876 143.682 617.446 142.649 617.44 141.57V138.16C617.446 137.082 617.876 136.05 618.638 135.288C619.4 134.526 620.433 134.095 621.51 134.09H624.66V121.45C624.656 120.311 625.046 119.205 625.764 118.321C626.482 117.437 627.484 116.829 628.6 116.6L635.6 115.28C636.082 115.197 636.575 115.22 637.046 115.347C637.518 115.474 637.956 115.702 638.331 116.015C638.705 116.328 639.008 116.718 639.216 117.159C639.425 117.601 639.536 118.082 639.54 118.57V134.09H648.46C649.539 134.095 650.572 134.525 651.336 135.287C652.1 136.049 652.533 137.081 652.54 138.16V141.57C652.535 142.65 652.104 143.685 651.34 144.449C650.576 145.213 649.541 145.645 648.46 145.65H639.5V184.11C639.5 189.11 641.2 190.67 644.62 190.67C645.817 190.644 647.006 190.469 648.16 190.15C648.557 190.029 648.975 189.991 649.387 190.039C649.799 190.087 650.197 190.22 650.555 190.429C650.913 190.639 651.223 190.92 651.467 191.256C651.711 191.592 651.882 191.975 651.97 192.38L652.76 195.8C653.014 196.892 652.845 198.039 652.289 199.013C651.733 199.986 650.83 200.714 649.76 201.05C647.257 201.84 644.646 202.238 642.02 202.23C631.78 202.23 624.69 198.41 624.69 186.87V145.65H621.51Z" fill="#362D31"/>
<path d="M673.05 200.52C672.286 200.512 671.556 200.205 671.015 199.665C670.475 199.125 670.168 198.394 670.16 197.63V113.21C670.171 112.448 670.479 111.72 671.019 111.182C671.559 110.643 672.288 110.338 673.05 110.33H676.6C677.472 110.346 678.323 110.598 679.062 111.06C679.802 111.521 680.402 112.174 680.8 112.95L709.16 171.11C712.32 177.372 714.995 183.868 717.16 190.54H717.42C716.681 183.254 716.347 175.933 716.42 168.61V113.21C716.428 112.447 716.735 111.717 717.276 111.179C717.817 110.64 718.547 110.335 719.31 110.33H721.31C722.072 110.338 722.8 110.644 723.338 111.182C723.876 111.721 724.182 112.449 724.19 113.21V197.63C724.185 198.393 723.88 199.124 723.341 199.664C722.803 200.205 722.073 200.512 721.31 200.52H717.89C717.019 200.503 716.168 200.25 715.429 199.789C714.69 199.328 714.089 198.675 713.69 197.9L686.39 142.36C682.773 135.309 679.72 127.983 677.26 120.45H677C677.728 128.569 678.035 136.72 677.92 144.87V197.65C677.915 198.415 677.609 199.147 677.068 199.688C676.527 200.229 675.795 200.535 675.03 200.54L673.05 200.52Z" fill="#8EB533"/>
<path d="M749.33 170.32C749.59 189.32 754.71 195.14 766.52 195.14C771.242 195.237 775.877 193.86 779.78 191.2C780.432 190.75 781.231 190.567 782.014 190.688C782.797 190.808 783.504 191.224 783.99 191.85L784.77 192.77C784.997 193.068 785.16 193.409 785.25 193.772C785.34 194.136 785.354 194.514 785.292 194.883C785.231 195.252 785.094 195.605 784.89 195.919C784.687 196.233 784.421 196.503 784.11 196.71C779.39 199.99 774 201.83 766.52 201.83C751.52 201.83 741.05 193.43 741.05 169.27C741.05 145.38 751.16 136.45 765.05 136.45C779.62 136.45 787.5 145.65 787.5 167.04V168.75C787.511 168.948 787.482 169.147 787.415 169.333C787.348 169.52 787.244 169.692 787.11 169.838C786.976 169.984 786.814 170.102 786.634 170.185C786.453 170.268 786.258 170.314 786.06 170.32H749.33ZM749.46 164.16H779.39C779.39 148.16 774.66 142.88 764.95 142.88C756.15 142.88 750.37 147.75 749.46 164.16Z" fill="#8EB533"/>
<path d="M804.59 144.2H799.86C799.095 144.19 798.364 143.881 797.824 143.339C797.284 142.797 796.977 142.065 796.97 141.3V140.66C796.977 139.895 797.284 139.164 797.824 138.622C798.364 138.08 799.095 137.771 799.86 137.76H804.59V124.11C804.591 123.298 804.864 122.509 805.363 121.868C805.863 121.227 806.562 120.77 807.35 120.57L809.58 120.04C809.911 119.983 810.25 119.997 810.575 120.082C810.9 120.166 811.204 120.319 811.465 120.53C811.726 120.741 811.939 121.006 812.09 121.306C812.241 121.606 812.326 121.935 812.34 122.27V137.76H822.57C823.336 137.768 824.07 138.076 824.612 138.618C825.154 139.161 825.462 139.894 825.47 140.66V141.3C825.462 142.067 825.154 142.8 824.612 143.342C824.07 143.884 823.336 144.193 822.57 144.2H812.34V189.62C812.34 193.43 814.04 195.4 817.59 195.4C819.199 195.441 820.801 195.173 822.31 194.61C823.043 194.4 823.83 194.472 824.513 194.812C825.196 195.153 825.727 195.737 826 196.45C826.158 196.829 826.238 197.235 826.238 197.645C826.237 198.055 826.154 198.461 825.995 198.839C825.836 199.216 825.603 199.559 825.311 199.846C825.018 200.133 824.671 200.359 824.29 200.51C822.036 201.41 819.626 201.855 817.2 201.82C810.12 201.82 804.6 198.54 804.6 190L804.59 144.2Z" fill="#8EB533"/>
<path d="M321.883 155.057C260.149 121.562 193.851 150.996 181.683 204.435C181.683 204.435 290.202 188.725 321.883 155.057Z" fill="#8EB533"/>
<path d="M218.203 31C198.921 38.6897 179.164 64.5236 168.839 98.4503C159.94 127.697 160.199 155.777 167.961 173.936C171.431 162.416 174.858 152.667 179.884 143.163C182.044 139.073 185.255 141.032 185.169 144.286C185.097 147.051 184.449 152.293 182.001 163.827C181.166 167.686 180.129 172.755 178.977 178.544C195.94 168.19 212.443 144.545 221.558 114.535C231.897 80.5797 229.881 48.1218 218.131 31.0144" fill="#8EB533"/>
<path d="M158.7 94.563C159.405 92.1726 160.14 89.8542 161.018 87.5358C139.231 61.8891 112.677 46.6249 92.7759 46.7113C88.283 66.9579 98.5359 97.8319 120.784 125.466C130.135 137.228 141.232 147.489 153.689 155.893C150.521 138.757 151.86 116.998 158.7 94.563Z" fill="#8EB533"/>
<path d="M31 155.058C92.7335 121.563 159.032 150.997 171.2 204.45C171.2 204.45 62.6803 188.725 31 155.058Z" fill="#8EB533"/>
<path d="M356.12 86C357.24 86 358.2 85.04 358.2 83.92V64.4H367.88C378.84 64.4 383.8 58.08 383.8 47.36C383.8 36.8 378.2 30.88 367 30.88H352.92C351.8 30.88 350.84 31.84 350.84 32.96V83.92C350.84 85.04 351.8 86 352.92 86H356.12ZM358.2 37.2H366.6C373.32 37.2 376.04 39.92 376.04 47.76C376.04 55.52 373.08 58.16 366.92 58.16H358.2V37.2ZM419.946 65.92C419.946 50.88 413.226 44.88 403.466 44.88C393.706 44.88 387.226 50.88 387.226 65.92C387.226 80.96 393.866 87.04 403.626 87.04C413.386 87.04 419.946 80.96 419.946 65.92ZM394.586 65.92C394.586 53.52 397.466 50.32 403.546 50.32C409.626 50.32 412.586 53.6 412.586 66C412.586 78.32 409.706 81.6 403.626 81.6C397.546 81.6 394.586 78.24 394.586 65.92ZM438.153 86C439.353 86 440.473 85.12 440.713 84L445.673 64.64C446.553 61.28 447.913 53.76 447.993 53.04H448.073C448.553 55.44 449.513 60.88 450.473 64.64L455.433 84C455.753 85.12 456.873 86 458.073 86H460.793C461.993 86 463.113 85.2 463.433 84L472.873 47.92C473.193 46.96 472.393 45.92 471.353 45.92H468.553C467.352 45.92 466.233 46.8 465.993 47.92L461.513 66.8C460.712 70.24 459.593 76.72 459.433 77.84H459.273C459.113 76.88 458.073 70.8 457.033 66.56L452.393 47.92C452.153 46.8 451.033 45.92 449.833 45.92H446.793C445.593 45.92 444.473 46.8 444.233 47.92L439.273 67.2C438.633 69.68 437.753 74.56 437.353 77.84H437.193C436.793 74.96 435.993 69.92 435.193 66.48L430.793 47.92C430.553 46.8 429.433 45.92 428.233 45.92H425.033C423.993 45.92 423.193 46.96 423.513 47.92L432.793 84C433.113 85.12 434.233 86 435.433 86H438.153ZM504.494 83.68C505.454 83.04 505.614 81.68 504.974 80.8L503.694 79.12C503.054 78.24 501.694 78 500.734 78.72C498.654 80.16 496.414 81.2 492.974 81.2C486.334 81.2 483.934 78.48 483.774 67.52H505.774C506.494 67.52 507.054 66.96 507.054 66.24V64.8C507.054 50.32 501.614 44.88 492.094 44.88C482.654 44.88 476.414 50.72 476.414 65.92C476.414 80.96 482.334 87.04 492.814 87.04C497.854 87.04 501.214 86 504.494 83.68ZM499.774 62.32H483.854C484.414 52.72 487.294 50.32 491.934 50.32C497.694 50.32 499.774 53.12 499.774 62.32ZM519.309 86C520.429 86 521.389 85.04 521.389 83.92V56.56C524.349 53.84 526.829 52.48 530.509 52.48C530.909 52.48 531.389 52.48 531.789 52.56C532.429 52.64 532.989 52.16 533.069 51.6L533.629 46C533.709 45.68 533.389 45.36 533.069 45.28C532.829 45.2 532.509 45.2 532.269 45.2C527.629 45.2 523.949 47.92 520.989 51.6L520.269 48C520.029 46.8 518.989 45.92 517.789 45.92H516.589C515.469 45.92 514.509 46.88 514.509 48V83.92C514.509 85.04 515.469 86 516.589 86H519.309ZM564.541 83.68C565.501 83.04 565.661 81.68 565.021 80.8L563.741 79.12C563.101 78.24 561.741 78 560.781 78.72C558.701 80.16 556.461 81.2 553.021 81.2C546.381 81.2 543.981 78.48 543.821 67.52H565.821C566.541 67.52 567.101 66.96 567.101 66.24V64.8C567.101 50.32 561.661 44.88 552.141 44.88C542.701 44.88 536.461 50.72 536.461 65.92C536.461 80.96 542.381 87.04 552.861 87.04C557.901 87.04 561.261 86 564.541 83.68ZM559.821 62.32H543.901C544.461 52.72 547.341 50.32 551.981 50.32C557.741 50.32 559.821 53.12 559.821 62.32ZM597.196 81.84L597.756 84C598.076 85.2 599.196 86 600.396 86H601.596C602.716 86 603.676 85.04 603.676 83.92V30.16C603.676 29.04 602.716 28.08 601.596 28.08H598.876C597.756 28.08 596.796 29.04 596.796 30.16V49.76C594.236 47.28 590.556 44.88 586.156 44.88C576.796 44.88 572.396 51.2 572.396 66.24C572.396 82.72 578.396 87.04 586.076 87.04C590.316 87.04 594.156 85.2 597.196 81.84ZM579.756 65.76C579.756 52.88 582.236 50.8 587.916 50.8C591.276 50.8 594.476 52.88 596.796 55.12V76.8C593.916 79.52 591.196 81.12 587.276 81.12C581.836 81.12 579.756 78.64 579.756 65.76ZM660.492 65.68C660.492 49.2 654.492 44.88 646.812 44.88C642.572 44.88 638.972 47.04 636.092 50.08V30.16C636.092 29.04 635.132 28.08 634.012 28.08H631.292C630.172 28.08 629.212 29.04 629.212 30.16V83.92C629.212 85.04 630.172 86 631.292 86H632.492C633.692 86 634.812 85.2 635.132 84L635.692 82.16C638.012 84.8 642.332 87.04 646.732 87.04C656.092 87.04 660.492 80.72 660.492 65.68ZM636.092 77.2V55.52C638.972 52.8 641.692 50.8 645.612 50.8C651.052 50.8 653.132 53.28 653.132 66.16C653.132 79.04 650.652 81.12 644.972 81.12C641.612 81.12 638.412 79.44 636.092 77.2ZM683.935 87.28L696.575 47.92C696.895 46.88 696.175 45.92 695.135 45.92H692.175C690.975 45.92 689.855 46.72 689.455 47.92L682.975 69.52C681.775 73.44 681.055 77.6 680.495 80.48H680.415C679.855 77.44 678.895 72.72 678.015 69.52L671.855 47.92C671.535 46.72 670.415 45.92 669.215 45.92H665.855C664.815 45.92 664.095 46.88 664.415 47.92L675.775 84.48C676.095 85.36 676.895 86 677.855 86H677.935C675.935 92.64 673.855 94.8 668.895 96.4C667.775 96.72 667.135 97.92 667.455 99.04L667.855 100.56C668.175 101.68 669.295 102.4 670.415 102.08C677.215 100.48 680.335 98.08 683.935 87.28Z" fill="#362D31"/>
</svg>
